<svg width="12" height="12" viewBox="0 0 12 12" fill="none" xmlns="http://www.w3.org/2000/svg">
<path d="M10.9453 1H1.05469C0.473859 1 0 1.47334 0 2.05469V9.08594C0 9.66531 0.47175 10.1406 1.05469 10.1406H10.9453C11.5247 10.1406 12 9.66887 12 9.08594V2.05469C12 1.47531 11.5282 1 10.9453 1ZM10.7997 1.70312L6.02236 6.48046L1.20373 1.70312H10.7997ZM0.703125 8.94034V2.19693L4.08935 5.55412L0.703125 8.94034ZM1.2003 9.4375L4.58866 6.04914L5.77594 7.22622C5.91337 7.36248 6.13516 7.36204 6.27204 7.22514L7.42969 6.06749L10.7997 9.4375H1.2003ZM11.2969 8.94032L7.92687 5.57031L11.2969 2.20028V8.94032Z" fill="#F6762C"/>
</svg>
