<svg width="37" height="32" viewBox="0 0 37 32" fill="none" xmlns="http://www.w3.org/2000/svg">
<path d="M12.8079 0.692749H4.26931C3.08325 0.692749 2.07531 1.10786 1.24501 1.93784C0.415108 2.76798 0 3.77592 0 4.96205V13.5004C0 14.6864 0.414874 15.6942 1.24501 16.5242C2.07523 17.3541 3.08348 17.7694 4.26931 17.7694H9.25006C9.84281 17.7694 10.3469 17.977 10.762 18.3919C11.1772 18.8067 11.3846 19.3109 11.3846 19.9042V20.6153C11.3846 22.1867 10.8286 23.5278 9.71696 24.6398C8.6052 25.7513 7.26377 26.3072 5.6922 26.3072H4.26931C3.88364 26.3072 3.55023 26.4484 3.26845 26.7298C2.98691 27.0113 2.84602 27.345 2.84602 27.7304V30.5769C2.84602 30.9617 2.98691 31.296 3.26845 31.5775C3.55046 31.8589 3.88356 32.0002 4.26931 32.0002H5.69228C7.2341 32.0002 8.70536 31.6995 10.1063 31.0994C11.5071 30.4992 12.7189 29.6873 13.7418 28.6644C14.7645 27.6414 15.5761 26.4299 16.1764 25.029C16.7767 23.6281 17.0769 22.157 17.0769 20.6154V4.96174C17.0769 3.77561 16.6618 2.76774 15.8318 1.93776C15.0018 1.10778 13.9937 0.692749 12.8079 0.692749Z" fill="#F6762C"/>
<path d="M35.7545 1.93772C34.9246 1.10774 33.9165 0.692627 32.7305 0.692627H24.1922C23.0061 0.692627 21.9982 1.10774 21.1682 1.93772C20.3383 2.76793 19.9233 3.7758 19.9233 4.96193V13.5002C19.9233 14.6863 20.3383 15.6941 21.1682 16.5241C21.9982 17.354 23.0062 17.7692 24.1922 17.7692H29.1729C29.7657 17.7692 30.2702 17.9769 30.6852 18.3918C31.0999 18.8068 31.3078 19.3108 31.3078 19.904V20.6152C31.3078 22.1866 30.7518 23.5277 29.6399 24.6397C28.5282 25.7511 27.1871 26.3071 25.6154 26.3071H24.1922C23.8068 26.3071 23.4731 26.4483 23.1916 26.7297C22.9099 27.0112 22.7689 27.3448 22.7689 27.7303V30.5768C22.7689 30.9616 22.9099 31.2958 23.1916 31.5774C23.473 31.8588 23.8067 32 24.1922 32H25.6154C27.157 32 28.6281 31.6994 30.0292 31.0993C31.4299 30.499 32.6415 29.6872 33.6644 28.6643C34.6873 27.6413 35.4995 26.4295 36.0994 25.0289C36.6996 23.6283 36.9999 22.1568 36.9999 20.6153V4.96162C36.9997 3.77549 36.585 2.76762 35.7545 1.93772Z" fill="#F6762C"/>
</svg>
